<svg width="90" height="77" viewBox="0 0 90 77" fill="none" xmlns="http://www.w3.org/2000/svg">
<path d="M88.5 0H1C0.734784 0 0.48043 0.105357 0.292893 0.292893C0.105357 0.48043 0 0.734784 0 1V76C0 76.2652 0.105357 76.5196 0.292893 76.7071C0.48043 76.8946 0.734784 77 1 77H88.5C88.7652 77 89.0196 76.8946 89.2071 76.7071C89.3946 76.5196 89.5 76.2652 89.5 76V1C89.5 0.734784 89.3946 0.48043 89.2071 0.292893C89.0196 0.105357 88.7652 0 88.5 0ZM2 2H14.58V15H2V2ZM87.5 75H2V17H87.5V75ZM87.5 15H16.58V2H87.5V15Z" fill="#FF7B00"/>
<path d="M53.9 48.1801C54.6126 48.1862 55.3215 48.0781 56 47.8601C56.7243 47.6351 57.3967 47.2684 57.9782 46.7815C58.5597 46.2946 59.0388 45.6971 59.3876 45.0236C59.7364 44.3501 59.9481 43.6141 60.0103 42.8582C60.0725 42.1023 59.984 41.3416 59.75 40.6201L64.87 21.5001C64.9349 21.2483 64.8991 20.9811 64.7703 20.7552C64.6415 20.5294 64.4298 20.3625 64.18 20.2901L61.26 19.5001C61.0094 19.4281 60.7406 19.4567 60.5108 19.58C60.281 19.7033 60.1085 19.9115 60.03 20.1601L54.2 38.5001C53.1036 38.8395 52.1573 39.5456 51.52 40.5001C50.4 41.8101 49.62 42.5801 48.44 42.2401C48.2671 42.1927 48.0846 42.1926 47.9116 42.2398C47.7387 42.2871 47.5816 42.38 47.4569 42.5089C47.3321 42.6377 47.2443 42.7977 47.2027 42.9721C47.161 43.1465 47.167 43.3288 47.22 43.5001C47.7048 44.8804 48.6098 46.0741 49.808 46.9136C51.0061 47.753 52.4371 48.1959 53.9 48.1801ZM61.64 21.6701L62.64 21.9701L58.05 39.3501L56.18 38.8101L61.64 21.6701ZM53.04 41.7301C53.75 40.9101 54.29 40.3401 54.64 40.4401L57.9 41.4401C58.1668 42.3789 58.053 43.385 57.5831 44.2404C57.1133 45.0958 56.3254 45.7316 55.39 46.0101C54.3902 46.3334 53.3139 46.3336 52.3141 46.0104C51.3142 45.6873 50.4415 45.0574 49.82 44.2101C51.1302 43.7477 52.2583 42.8788 53.04 41.7301ZM70.56 44.5001L78.56 33.3601C78.6829 33.1898 78.749 32.9851 78.749 32.7751C78.749 32.5651 78.6829 32.3605 78.56 32.1901L70.56 21.0401L68.94 22.2101L76.53 32.7701L68.94 43.3501L70.56 44.5001ZM43.94 45.3501L45.56 44.1801L37.37 32.7801L45.56 21.3901L43.94 20.2201L35.33 32.2201C35.2071 32.3905 35.141 32.5951 35.141 32.8051C35.141 33.0151 35.2071 33.2198 35.33 33.3901L43.94 45.3501ZM35.38 56.6901H82.63C82.8952 56.6901 83.1496 56.5848 83.3371 56.3972C83.5246 56.2097 83.63 55.9554 83.63 55.6901V51.0001C83.63 50.7349 83.5246 50.4806 83.3371 50.293C83.1496 50.1055 82.8952 50.0001 82.63 50.0001H35.38C35.1148 50.0001 34.8604 50.1055 34.6729 50.293C34.4854 50.4806 34.38 50.7349 34.38 51.0001V55.6901C34.38 55.9554 34.4854 56.2097 34.6729 56.3972C34.8604 56.5848 35.1148 56.6901 35.38 56.6901ZM36.38 52.0001H81.63V54.6901H36.38V52.0001ZM35.38 67.6301H73.62C73.8852 67.6301 74.1396 67.5248 74.3271 67.3372C74.5146 67.1497 74.62 66.8954 74.62 66.6301V61.9401C74.62 61.6749 74.5146 61.4206 74.3271 61.233C74.1396 61.0455 73.8852 60.9401 73.62 60.9401H35.38C35.1148 60.9401 34.8604 61.0455 34.6729 61.233C34.4854 61.4206 34.38 61.6749 34.38 61.9401V66.6301C34.38 66.8954 34.4854 67.1497 34.6729 67.3372C34.8604 67.5248 35.1148 67.6301 35.38 67.6301ZM36.38 62.9401H72.62V65.6301H36.38V62.9401ZM6.25 22.8801V44.7501C6.25 45.0154 6.35536 45.2697 6.54289 45.4572C6.73043 45.6448 6.98478 45.7501 7.25 45.7501H29.13C29.3952 45.7501 29.6496 45.6448 29.8371 45.4572C30.0246 45.2697 30.13 45.0154 30.13 44.7501V22.8801C30.13 22.6149 30.0246 22.3606 29.8371 22.173C29.6496 21.9855 29.3952 21.8801 29.13 21.8801H7.25C6.98478 21.8801 6.73043 21.9855 6.54289 22.173C6.35536 22.3606 6.25 22.6149 6.25 22.8801ZM8.25 23.8801H28.13V43.7501H8.25V23.8801ZM29.13 50.0001H7.25C6.98478 50.0001 6.73043 50.1055 6.54289 50.293C6.35536 50.4806 6.25 50.7349 6.25 51.0001V69.7501C6.25 70.0154 6.35536 70.2697 6.54289 70.4572C6.73043 70.6448 6.98478 70.7501 7.25 70.7501H29.13C29.3952 70.7501 29.6496 70.6448 29.8371 70.4572C30.0246 70.2697 30.13 70.0154 30.13 69.7501V51.0001C30.13 50.7349 30.0246 50.4806 29.8371 50.293C29.6496 50.1055 29.3952 50.0001 29.13 50.0001ZM26.42 52.0001L18.19 59.0601L9.95 52.0001H26.42ZM8.25 53.1701L16.65 60.3801L8.25 67.5801V53.1701ZM9.95 68.7501L18.19 61.6901L26.42 68.7501H9.95ZM28.13 67.5801L19.75 60.3801L28.16 53.1701L28.13 67.5801ZM32.8 11.6201C32.8158 11.7002 32.8427 11.7776 32.88 11.8501C32.9226 11.9093 32.9818 11.9545 33.05 11.9801C33.1535 12.0143 33.2611 12.0345 33.37 12.0401H34.43C34.539 12.0356 34.6468 12.0153 34.75 11.9801C34.8159 11.9501 34.8715 11.9015 34.91 11.8401C34.9519 11.7733 34.9791 11.6983 34.99 11.6201L36.14 6.82014L37.36 11.6201C37.3712 11.7013 37.3984 11.7795 37.44 11.8501C37.478 11.9136 37.5388 11.9601 37.61 11.9801C37.7132 12.0153 37.821 12.0356 37.93 12.0401H38.93C39.0356 12.0347 39.14 12.0145 39.24 11.9801C39.3165 11.9602 39.3837 11.9142 39.43 11.8501C39.4754 11.7804 39.506 11.7021 39.52 11.6201L41.26 5.03014C41.2921 4.9154 41.3155 4.7984 41.33 4.68014C41.3331 4.6117 41.3118 4.5444 41.27 4.49014C41.2111 4.44044 41.137 4.41223 41.06 4.41014H40.23C40.15 4.41404 40.0717 4.43447 40 4.47014C39.9756 4.47801 39.9532 4.491 39.9342 4.50825C39.9152 4.5255 39.9002 4.5466 39.89 4.57014C39.8843 4.62332 39.8843 4.67696 39.89 4.73014L38.55 10.5001L37.12 4.74014C37.1061 4.67371 37.0825 4.60968 37.05 4.55014C37.0216 4.49881 36.9753 4.45968 36.92 4.44014C36.8389 4.41375 36.755 4.39697 36.67 4.39014H35.75C35.6637 4.39453 35.5789 4.41487 35.5 4.45014C35.4459 4.46636 35.3996 4.50196 35.37 4.55014C35.3366 4.60845 35.3162 4.67324 35.31 4.74014L33.96 10.5001L32.63 4.70014C32.6235 4.63776 32.6066 4.57691 32.58 4.52014C32.5556 4.47768 32.5165 4.44566 32.47 4.43014C32.3905 4.41725 32.3095 4.41725 32.23 4.43014H31.32C31.234 4.4333 31.1507 4.46107 31.08 4.51014C31.0551 4.53436 31.0365 4.5644 31.026 4.59757C31.0156 4.63073 31.0135 4.66598 31.02 4.70014C31.0097 4.80989 31.0097 4.92038 31.02 5.03014L32.8 11.6201ZM47.58 11.6201C47.6031 11.6993 47.6332 11.7763 47.67 11.8501C47.7107 11.9112 47.7705 11.9569 47.84 11.9801C47.9435 12.0143 48.0511 12.0345 48.16 12.0401H49.22C49.3258 12.0357 49.4302 12.0155 49.53 11.9801C49.6003 11.953 49.6599 11.9039 49.7 11.8401C49.7419 11.7733 49.7691 11.6983 49.78 11.6201L50.93 6.82014L52.15 11.6201C52.1565 11.7024 52.184 11.7816 52.23 11.8501C52.268 11.9136 52.3288 11.9601 52.4 11.9801C52.5032 12.0153 52.611 12.0356 52.72 12.0401H53.72C53.8289 12.0345 53.9365 12.0143 54.04 11.9801C54.114 11.9549 54.1797 11.9099 54.23 11.8501C54.2754 11.7804 54.306 11.7021 54.32 11.6201L56.06 5.03014C56.0947 4.91647 56.1148 4.79887 56.12 4.68014C56.1329 4.65013 56.1396 4.61781 56.1396 4.58514C56.1396 4.55246 56.1329 4.52014 56.12 4.49014C56.0611 4.44044 55.987 4.41223 55.91 4.41014H55.08C55 4.41404 54.9217 4.43447 54.85 4.47014C54.8256 4.47801 54.8032 4.491 54.7842 4.50825C54.7652 4.5255 54.7502 4.5466 54.74 4.57014C54.7343 4.62332 54.7343 4.67696 54.74 4.73014L53.34 10.5001L51.91 4.74014C51.8961 4.67371 51.8725 4.60968 51.84 4.55014C51.814 4.52715 51.7833 4.5101 51.75 4.50014C51.6654 4.47393 51.5782 4.45716 51.49 4.45014H50.62C50.5339 4.45579 50.4493 4.47608 50.37 4.51014C50.3443 4.5179 50.3205 4.53076 50.2998 4.54794C50.2792 4.56512 50.2623 4.58627 50.25 4.61014C50.2175 4.66968 50.1939 4.7337 50.18 4.80014L48.75 10.5001L47.42 4.70014C47.4087 4.63878 47.3919 4.57855 47.37 4.52014C47.3456 4.47768 47.3064 4.44566 47.26 4.43014C47.1772 4.41634 47.0928 4.41634 47.01 4.43014H46.11C46.024 4.4333 45.9407 4.46107 45.87 4.51014C45.8457 4.53517 45.827 4.56501 45.8149 4.59773C45.8028 4.63045 45.7978 4.66534 45.8 4.70014C45.8 4.78014 45.82 4.89014 45.86 5.03014L47.58 11.6201ZM62.37 11.6201C62.3931 11.6993 62.4232 11.7763 62.46 11.8501C62.5007 11.9112 62.5605 11.9569 62.63 11.9801C62.7332 12.0153 62.841 12.0356 62.95 12.0401H64.01C64.1156 12.0347 64.22 12.0145 64.32 11.9801C64.3886 11.9503 64.4475 11.9018 64.49 11.8401C64.5274 11.7712 64.5544 11.697 64.57 11.6201L65.75 6.82014L66.96 11.6201C66.9758 11.7002 67.0027 11.7776 67.04 11.8501C67.0826 11.9093 67.1418 11.9545 67.21 11.9801C67.3135 12.0143 67.4211 12.0345 67.53 12.0401H68.53C68.6389 12.0345 68.7465 12.0143 68.85 11.9801C68.9225 11.9575 68.9857 11.9119 69.03 11.8501C69.0789 11.7812 69.113 11.7029 69.13 11.6201L70.87 5.03014C70.9047 4.91647 70.9248 4.79887 70.93 4.68014C70.9429 4.65013 70.9496 4.61781 70.9496 4.58514C70.9496 4.55246 70.9429 4.52014 70.93 4.49014C70.8691 4.44395 70.7962 4.41619 70.72 4.41014H69.85C69.7671 4.41573 69.6858 4.43605 69.61 4.47014C69.5628 4.4897 69.524 4.52505 69.5 4.57014C69.4943 4.62332 69.4943 4.67696 69.5 4.73014L68.13 10.5001L66.71 4.74014C66.6961 4.67371 66.6725 4.60968 66.64 4.55014C66.6091 4.50086 66.5637 4.46242 66.51 4.44014C66.4254 4.41393 66.3382 4.39716 66.25 4.39014H65.38C65.2939 4.39579 65.2093 4.41608 65.13 4.45014C65.0773 4.46918 65.0319 4.50413 65 4.55014C64.9757 4.61202 64.9556 4.6755 64.94 4.74014L63.54 10.5001L62.21 4.70014C62.2191 4.64048 62.2191 4.5798 62.21 4.52014C62.1972 4.49778 62.1799 4.47827 62.1593 4.46279C62.1386 4.44732 62.1151 4.43621 62.09 4.43014C62.0107 4.41524 61.9293 4.41524 61.85 4.43014H60.95C60.864 4.4333 60.7807 4.46107 60.71 4.51014C60.6857 4.53517 60.667 4.56501 60.6549 4.59773C60.6428 4.63045 60.6378 4.66534 60.64 4.70014C60.6507 4.81162 60.6708 4.92201 60.7 5.03014L62.37 11.6201Z" fill="#FF7B00"/>
</svg>
