<?xml version="1.0" standalone="no"?>
<!DOCTYPE svg PUBLIC "-//W3C//DTD SVG 20010904//EN"
 "http://www.w3.org/TR/2001/REC-SVG-20010904/DTD/svg10.dtd">
<svg version="1.0" xmlns="http://www.w3.org/2000/svg"
 width="64.000000pt" height="64.000000pt" viewBox="0 0 64.000000 64.000000"
 preserveAspectRatio="xMidYMid meet">

<g transform="translate(0.000000,64.000000) scale(0.100000,-0.100000)"
fill="#000000" stroke="none">
<path d="M372 618 c-6 -6 -35 -11 -64 -11 -62 2 -78 -9 -78 -52 0 -18 -7 -38
-15 -45 -21 -17 -19 -29 10 -56 32 -29 33 -49 3 -39 -43 14 -96 17 -102 6 -4
-6 -22 -11 -41 -11 -21 0 -35 -6 -39 -16 -10 -25 -7 -84 4 -84 6 0 10 20 10
45 0 41 2 45 25 45 14 0 25 -4 25 -10 0 -5 -7 -10 -15 -10 -13 0 -15 -22 -15
-135 l0 -135 164 0 c99 0 167 4 171 10 4 7 -52 10 -159 10 l-166 0 0 113 0
113 230 0 230 0 0 -113 0 -113 -45 0 c-25 0 -45 -5 -45 -11 0 -6 19 -9 48 -7
l47 3 3 133 c2 113 0 132 -13 132 -8 0 -15 5 -15 10 0 6 11 10 25 10 l25 0 0
-155 0 -155 -260 0 -260 0 0 91 c0 57 -4 88 -10 84 -5 -3 -10 -44 -10 -90 0
-64 -3 -84 -15 -89 -22 -8 -18 -34 10 -61 l24 -25 261 0 261 0 24 25 c28 27
32 53 10 61 -12 5 -15 31 -15 149 0 79 -3 150 -6 159 -4 10 -18 16 -39 16 -19
0 -37 5 -41 11 -6 11 -59 8 -101 -6 -31 -10 -30 10 2 39 29 27 30 34 9 57 -14
15 -14 23 -3 53 10 28 10 38 0 50 -16 19 -33 20 -49 4z m18 -126 c0 -60 -12
-72 -70 -72 -58 0 -70 12 -70 72 l0 48 70 0 70 0 0 -48z m-160 -8 c0 -8 -5
-12 -10 -9 -6 4 -8 11 -5 16 9 14 15 11 15 -7z m187 -6 c-3 -8 -6 -5 -6 6 -1
11 2 17 5 13 3 -3 4 -12 1 -19z m-223 -64 c17 -7 22 -44 6 -44 -5 0 -10 6 -10
13 0 7 -7 4 -15 -7 -14 -19 -15 -19 -15 -2 0 15 -3 16 -15 6 -12 -10 -15 -9
-15 8 0 27 30 39 64 26z m300 0 c9 -3 16 -15 16 -26 0 -17 -3 -18 -15 -8 -12
10 -15 9 -15 -6 0 -17 -1 -17 -15 2 -8 11 -15 14 -15 7 0 -21 -20 -15 -20 6 0
26 30 38 64 25z m-84 -24 c0 -6 -37 -10 -90 -10 -53 0 -90 4 -90 10 0 6 37 10
90 10 53 0 90 -4 90 -10z m-166 -325 c4 -11 22 -15 76 -15 54 0 72 4 76 15 5
12 27 15 110 15 93 0 104 -2 104 -18 0 -40 -14 -42 -290 -42 -276 0 -290 2
-290 42 0 16 11 18 104 18 83 0 105 -3 110 -15z m131 5 c-8 -13 -102 -13 -110
0 -4 6 17 10 55 10 38 0 59 -4 55 -10z"/>
<path d="M275 500 c3 -5 8 -10 11 -10 2 0 4 5 4 10 0 6 -5 10 -11 10 -5 0 -7
-4 -4 -10z"/>
<path d="M350 499 c0 -5 5 -7 10 -4 6 3 10 8 10 11 0 2 -4 4 -10 4 -5 0 -10
-5 -10 -11z"/>
<path d="M310 485 c0 -8 5 -15 10 -15 6 0 10 7 10 15 0 8 -4 15 -10 15 -5 0
-10 -7 -10 -15z"/>
<path d="M292 450 c2 -8 15 -15 28 -15 13 0 26 7 28 15 5 13 3 13 -11 1 -14
-11 -20 -11 -34 0 -14 12 -16 12 -11 -1z"/>
<path d="M92 520 c-10 -17 -10 -23 3 -36 13 -14 17 -14 30 0 13 13 13 19 3 36
-7 11 -15 20 -18 20 -3 0 -11 -9 -18 -20z"/>
<path d="M512 520 c-11 -17 -10 -23 3 -37 15 -14 17 -14 29 3 10 14 11 22 2
36 -14 23 -18 23 -34 -2z"/>
<path d="M170 295 l-44 -45 44 -45 c24 -25 50 -45 56 -45 26 0 23 20 -7 55
l-32 36 32 32 c24 26 28 36 19 45 -17 17 -20 16 -68 -33z"/>
<path d="M402 328 c-9 -9 -5 -19 20 -45 l32 -33 -27 -28 c-28 -30 -36 -62 -14
-62 7 0 33 20 57 45 l44 45 -44 45 c-48 49 -51 50 -68 33z"/>
<path d="M297 259 c-14 -40 -23 -78 -20 -86 11 -29 39 -6 61 49 31 78 32 102
6 106 -18 3 -25 -8 -47 -69z"/>
</g>
</svg>
