<svg width="728" height="800" viewBox="0 0 728 800" fill="none" xmlns="http://www.w3.org/2000/svg">
<path d="M725.149 123.782C708.305 61.3818 582.938 0 363.636 0C144.335 0 18.9527 61.3818 2.12364 123.782C0.901817 125.92 0 128.262 0 130.909V138.182V305.455V312.727V320V480V487.273V494.545V669.091C0 671.447 0.625456 673.673 1.70182 675.651C18.88 746.851 172.567 800 363.636 800C554.269 800 707.709 747.069 725.455 676.131C726.618 674.051 727.273 671.651 727.273 669.091V494.545V487.273V480V320V312.727V305.455V138.182V130.909C727.273 128.262 726.371 125.92 725.149 123.782ZM697.033 494.327C696.625 496.087 696.058 497.833 695.345 499.607C694.764 501.047 694.051 502.487 693.265 503.927C692.291 505.716 691.2 507.505 689.905 509.295C688.945 510.647 687.855 511.985 686.72 513.324C685.106 515.229 683.389 517.135 681.44 519.025C680.262 520.175 678.967 521.309 677.658 522.458C675.273 524.538 672.785 526.604 670.007 528.655C668.815 529.542 667.535 530.4 666.269 531.273C662.982 533.542 659.549 535.796 655.782 538.007C654.793 538.604 653.731 539.171 652.698 539.753C648.364 542.196 643.84 544.625 638.953 546.982C638.327 547.287 637.673 547.578 637.033 547.869C631.578 550.444 625.876 552.975 619.782 555.418C619.607 555.491 619.433 555.549 619.258 555.622C586.225 568.815 543.971 579.913 494.735 587.185C494.487 587.215 494.24 587.244 493.993 587.287C484.422 588.698 474.604 589.949 464.524 591.055C462.88 591.229 461.149 591.345 459.491 591.52C450.691 592.436 441.789 593.28 432.625 593.949C428.436 594.255 424.044 594.4 419.782 594.662C412.887 595.069 406.065 595.52 398.996 595.767C387.447 596.131 375.665 596.364 363.636 596.364C351.607 596.364 339.825 596.131 328.262 595.724C321.193 595.476 314.371 595.011 307.476 594.618C303.215 594.371 298.822 594.211 294.633 593.905C285.469 593.236 276.567 592.393 267.767 591.476C266.109 591.302 264.378 591.185 262.735 591.011C252.655 589.905 242.836 588.64 233.265 587.244C233.018 587.215 232.771 587.185 232.524 587.142C183.287 579.869 141.033 568.771 108 555.578C107.825 555.52 107.651 555.447 107.476 555.375C101.382 552.931 95.6655 550.4 90.2255 547.825C89.6 547.52 88.9309 547.229 88.3055 546.938C83.4182 544.582 78.8945 542.167 74.56 539.709C73.5418 539.127 72.4655 538.56 71.4764 537.964C67.7091 535.753 64.2764 533.498 60.9891 531.229C59.7382 530.356 58.4436 529.498 57.2509 528.611C54.4727 526.56 51.9855 524.495 49.6 522.415C48.3055 521.28 46.9964 520.145 45.8182 518.982C43.8691 517.091 42.1527 515.2 40.5382 513.28C39.4036 511.942 38.3127 510.604 37.3527 509.251C36.0727 507.462 34.9818 505.673 33.9927 503.884C33.2073 502.444 32.5091 501.004 31.9127 499.564C31.2 497.804 30.6327 496.044 30.2255 494.284C29.6873 491.971 29.0909 489.615 29.0909 487.273C29.0909 485.629 29.28 483.985 29.5418 482.356C29.9055 480.16 29.7018 477.964 29.0909 475.884V367.898C29.4982 368.276 30.0073 368.64 30.4291 369.018C33.6 371.811 36.8291 374.589 40.4655 377.265C95.2582 418.705 204.829 450.909 363.636 450.909C521.775 450.909 631.069 418.967 686.095 377.775C690.487 374.575 694.444 371.273 698.167 367.913L698.182 367.898V475.884C697.571 477.964 697.367 480.16 697.731 482.356C698.007 483.985 698.182 485.629 698.182 487.273C698.182 489.615 697.585 491.971 697.033 494.327ZM698.182 193.353V301.338C697.571 303.418 697.367 305.615 697.731 307.811C698.007 309.44 698.182 311.084 698.182 312.727C698.182 315.069 697.585 317.425 697.033 319.782C696.625 321.542 696.058 323.287 695.345 325.062C694.764 326.502 694.051 327.942 693.265 329.382C692.291 331.171 691.2 332.96 689.905 334.749C688.945 336.102 687.855 337.44 686.72 338.778C685.106 340.684 683.389 342.589 681.44 344.48C680.262 345.629 678.967 346.764 677.658 347.913C675.273 349.993 672.785 352.058 670.007 354.109C668.815 354.996 667.535 355.855 666.269 356.727C662.982 358.996 659.549 361.251 655.782 363.462C654.793 364.058 653.731 364.625 652.698 365.207C648.364 367.651 643.84 370.08 638.953 372.436C638.327 372.742 637.673 373.033 637.033 373.324C631.578 375.898 625.876 378.429 619.782 380.873C619.607 380.945 619.433 381.004 619.258 381.076C586.225 394.269 543.971 405.367 494.735 412.64C494.487 412.669 494.24 412.698 493.993 412.742C484.422 414.153 474.604 415.404 464.524 416.509C462.88 416.684 461.149 416.8 459.491 416.975C450.691 417.891 441.789 418.735 432.625 419.404C428.436 419.709 424.044 419.855 419.782 420.116C412.887 420.524 406.065 420.975 398.996 421.222C387.447 421.585 375.665 421.818 363.636 421.818C351.607 421.818 339.825 421.585 328.262 421.178C321.193 420.931 314.371 420.465 307.476 420.073C303.215 419.825 298.822 419.665 294.633 419.36C285.469 418.691 276.567 417.847 267.767 416.931C266.109 416.756 264.378 416.64 262.735 416.465C252.655 415.36 242.836 414.095 233.265 412.698C233.018 412.669 232.771 412.64 232.524 412.596C183.287 405.324 141.033 394.225 108 381.033C107.825 380.975 107.651 380.902 107.476 380.829C101.382 378.385 95.6655 375.855 90.2255 373.28C89.6 372.975 88.9309 372.684 88.3055 372.393C83.4182 370.036 78.8945 367.622 74.56 365.164C73.5418 364.582 72.4655 364.015 71.4764 363.418C67.7091 361.207 64.2764 358.953 60.9891 356.684C59.7382 355.811 58.4436 354.953 57.2509 354.065C54.4727 352.015 51.9855 349.949 49.6 347.869C48.3055 346.735 46.9964 345.6 45.8182 344.436C43.8691 342.545 42.1527 340.655 40.5382 338.735C39.4036 337.396 38.3127 336.058 37.3527 334.705C36.0727 332.916 34.9818 331.127 33.9927 329.338C33.2073 327.898 32.5091 326.458 31.9127 325.018C31.2 323.258 30.6327 321.498 30.2255 319.738C29.6873 317.425 29.0909 315.069 29.0909 312.727C29.0909 311.084 29.28 309.44 29.5418 307.811C29.9055 305.615 29.7018 303.418 29.0909 301.338V193.353C30.8364 194.938 32.8291 196.495 34.72 198.065C35.7673 198.938 36.7418 199.811 37.8473 200.684C42.2109 204.116 46.9236 207.505 52.0291 210.807C53.0909 211.491 54.2836 212.16 55.3891 212.844C59.6655 215.505 64.1891 218.109 68.9455 220.669C70.7055 221.615 72.4655 222.545 74.2836 223.476C79.5927 226.182 85.1636 228.815 91.0255 231.36C91.9855 231.782 92.8582 232.218 93.8327 232.625C100.655 235.52 107.898 238.284 115.433 240.96C117.513 241.702 119.695 242.4 121.833 243.127C127.825 245.149 134.022 247.084 140.436 248.96C142.749 249.629 145.018 250.327 147.389 250.967C155.898 253.324 164.684 255.564 173.905 257.629C175.171 257.92 176.538 258.153 177.818 258.429C185.949 260.204 194.385 261.847 203.055 263.389C205.993 263.913 208.975 264.407 211.971 264.902C220.218 266.255 228.713 267.491 237.425 268.625C239.665 268.916 241.804 269.251 244.073 269.527C254.895 270.836 266.095 271.956 277.6 272.916C280.436 273.149 283.389 273.324 286.269 273.527C295.476 274.196 304.887 274.749 314.516 275.185C318.022 275.345 321.513 275.505 325.091 275.636C337.629 276.058 350.4 276.364 363.636 276.364C376.873 276.364 389.644 276.058 402.182 275.636C405.745 275.505 409.236 275.345 412.756 275.185C422.385 274.749 431.796 274.196 441.004 273.527C443.884 273.309 446.822 273.149 449.673 272.916C461.178 271.971 472.378 270.836 483.2 269.527C485.469 269.251 487.607 268.916 489.847 268.625C498.56 267.491 507.04 266.255 515.302 264.902C518.298 264.407 521.28 263.913 524.218 263.389C532.887 261.847 541.324 260.204 549.455 258.429C550.735 258.153 552.102 257.905 553.367 257.629C562.589 255.564 571.375 253.309 579.884 250.967C582.255 250.313 584.524 249.629 586.836 248.96C593.251 247.084 599.447 245.149 605.44 243.127C607.578 242.4 609.76 241.702 611.84 240.96C619.375 238.284 626.633 235.52 633.44 232.625C634.415 232.218 635.287 231.782 636.247 231.36C642.109 228.8 647.68 226.182 652.989 223.476C654.807 222.545 656.582 221.615 658.327 220.669C663.084 218.124 667.607 215.52 671.884 212.844C672.989 212.16 674.182 211.491 675.244 210.807C680.349 207.505 685.062 204.131 689.425 200.684C690.516 199.811 691.491 198.938 692.553 198.065C694.444 196.495 696.436 194.938 698.182 193.353ZM363.636 29.0909C560.8 29.0909 698.182 86.5745 698.182 138.182C698.182 189.789 560.8 247.273 363.636 247.273C166.473 247.273 29.0909 189.789 29.0909 138.182C29.0909 86.5745 166.473 29.0909 363.636 29.0909ZM698.182 664.771C697.978 665.411 697.833 666.065 697.716 666.735C689.469 717.047 553.251 770.909 363.636 770.909C174.022 770.909 37.8036 717.047 29.5564 666.735C29.44 666.08 29.28 665.44 29.0909 664.829V542.444C29.4982 542.822 30.0073 543.185 30.4291 543.564C33.6 546.356 36.8291 549.135 40.4655 551.811C95.2582 593.251 204.829 625.455 363.636 625.455C521.775 625.455 631.069 593.513 686.095 552.32C690.487 549.12 694.444 545.818 698.167 542.458L698.182 542.444V664.771Z" fill="#FF7B00"/>
</svg>
