<svg width="1792" height="1374" viewBox="0 0 1792 1374" fill="none" xmlns="http://www.w3.org/2000/svg">
<path d="M553 1126L503 1176C496.333 1182.67 488.667 1186 480 1186C471.333 1186 463.667 1182.67 457 1176L-9 710C-15.6667 703.333 -19 695.667 -19 687C-19 678.333 -15.6667 670.667 -9 664L457 198C463.667 191.333 471.333 188 480 188C488.667 188 496.333 191.333 503 198L553 248C559.667 254.667 563 262.333 563 271C563 279.667 559.667 287.333 553 294L160 687L553 1080C559.667 1086.67 563 1094.33 563 1103C563 1111.67 559.667 1119.33 553 1126ZM1144 58.9999L771 1350C768.333 1358.67 763.167 1365.17 755.5 1369.5C747.833 1373.83 740 1374.67 732 1372L670 1355C661.333 1352.33 654.833 1347.17 650.5 1339.5C646.167 1331.83 645.333 1323.67 648 1315L1021 23.9999C1023.67 15.3332 1028.83 8.83322 1036.5 4.49988C1044.17 0.16655 1052 -0.666783 1060 1.99988L1122 18.9999C1130.67 21.6666 1137.17 26.8332 1141.5 34.4999C1145.83 42.1666 1146.67 50.3332 1144 58.9999ZM1801 710L1335 1176C1328.33 1182.67 1320.67 1186 1312 1186C1303.33 1186 1295.67 1182.67 1289 1176L1239 1126C1232.33 1119.33 1229 1111.67 1229 1103C1229 1094.33 1232.33 1086.67 1239 1080L1632 687L1239 294C1232.33 287.333 1229 279.667 1229 271C1229 262.333 1232.33 254.667 1239 248L1289 198C1295.67 191.333 1303.33 188 1312 188C1320.67 188 1328.33 191.333 1335 198L1801 664C1807.67 670.667 1811 678.333 1811 687C1811 695.667 1807.67 703.333 1801 710Z" fill="#FF7B00"/>
</svg>
