<svg width="800" height="800" viewBox="0 0 800 800" fill="none" xmlns="http://www.w3.org/2000/svg">
<path d="M674.6 565.233L577.29 541.971L468.816 433.497L552.388 350.03C571.8 356.843 591.978 360.171 612.058 360.17C659.037 360.166 705.443 341.943 739.956 307.494C793.392 254.156 807.873 172.381 775.993 104.013L761.21 72.3116L673.245 160.073L632.397 119.298L720.387 31.5144L688.542 16.7159C620.092 -15.0914 538.216 -0.63782 484.803 52.6773C435.544 101.85 419.39 175.197 442.147 239.921L409.269 272.758L166.965 30.4763C148.869 12.3199 124.77 2.30488 99.1052 2.27545C99.0676 2.27545 99.0333 2.27545 98.9957 2.27545C73.3354 2.27545 49.215 12.2545 31.0635 30.3864C12.8924 48.5575 2.89373 72.7073 2.90681 98.3888C2.91989 124.051 12.9267 148.179 31.0799 166.321L273.311 408.543L240.361 441.45C175.537 418.698 102.059 434.811 52.7921 483.988C-0.642417 537.326 -15.1254 619.099 16.7571 687.468L31.5393 719.169L119.503 631.409L160.351 672.182L72.361 759.968L104.208 774.764C128.426 786.017 154.318 791.479 180.044 791.479C227.026 791.477 273.432 773.254 307.945 738.803C357.206 689.631 373.36 616.284 350.603 551.559L434.113 468.153L542.611 576.651L565.873 673.961L691.272 799.362L800 690.634L674.6 565.233ZM493.214 235.414C470.031 185.684 480.577 126.196 519.453 87.3881C549.338 57.5589 591.445 44.428 631.974 50.4409L562.966 119.289L673.237 229.358L742.292 160.463C748.336 200.906 735.192 242.95 705.309 272.78C666.397 311.622 606.748 322.147 556.878 298.97L541.339 291.749L484.769 348.247L443.95 307.433L500.471 250.984L493.214 235.414ZM51.9518 98.3627C51.9452 85.7908 56.8432 73.9661 65.7334 65.0742C74.6154 56.2036 86.4255 51.3188 98.9973 51.3188C111.603 51.3335 123.386 56.2265 132.258 65.1266L450.066 382.905L383.51 449.376L65.7546 131.635C56.8612 122.746 51.9583 110.93 51.9518 98.3627ZM273.297 704.092C243.412 733.922 201.302 747.052 160.776 741.04L229.784 672.194L119.513 562.122L50.4575 631.017C44.4119 590.576 57.5576 548.532 87.4423 518.701C126.353 479.861 186.003 469.334 235.872 492.509L251.411 499.73L307.991 443.222L348.808 484.037L292.279 540.495L299.537 556.067C322.721 605.796 312.174 665.283 273.297 704.092ZM610.351 649.08L597.986 597.346L649.721 609.712L730.642 690.634L691.274 730.003L610.351 649.08Z" fill="#FF7B00"/>
</svg>
