<?xml version="1.0" standalone="no"?>
<!DOCTYPE svg PUBLIC "-//W3C//DTD SVG 20010904//EN"
 "http://www.w3.org/TR/2001/REC-SVG-20010904/DTD/svg10.dtd">
<svg version="1.0" xmlns="http://www.w3.org/2000/svg"
 width="225.000000pt" height="225.000000pt" viewBox="0 0 225.000000 225.000000"
 preserveAspectRatio="xMidYMid meet">

<g transform="translate(0.000000,225.000000) scale(0.100000,-0.100000)"
fill="#000000" stroke="none">
<path d="M141 1834 l135 -135 288 1 289 1 106 -105 106 -106 -150 -150 -150
-150 -102 102 -103 103 0 77 0 78 -140 0 -140 0 0 -138 0 -137 240 -240 240
-240 -97 -97 -98 -98 155 -155 155 -155 685 0 685 0 -135 135 -135 135 -490 0
-490 0 -113 113 c-61 62 -112 117 -112 123 0 5 20 30 45 54 l45 44 98 -97 97
-97 193 0 c105 0 192 3 192 7 0 4 -86 93 -190 198 l-190 190 50 50 50 50 195
-195 195 -195 0 195 0 195 -97 97 -97 98 49 50 50 50 -240 240 -240 240 -485
0 -485 0 136 -136z"/>
<path d="M1557 1582 l-97 -97 115 -115 115 -115 0 -277 0 -278 140 0 140 0 0
338 0 337 -153 153 c-84 83 -155 152 -157 152 -3 0 -49 -44 -103 -98z"/>
</g>
</svg>
